<svg xmlns="http://www.w3.org/2000/svg" width="512" height="512" viewBox="0 0 512 512" version="1.1">
	<path d="M 111 0.996 C 110.175 1.531, 108.254 1.976, 106.732 1.985 C 105.209 1.993, 100.484 2.915, 96.232 4.034 C 62.081 13.020, 32.505 35.911, 16.165 66.003 C 8.993 79.209, 5.162 90.089, 1.376 108 C 0.410 112.573, 0.410 399.427, 1.376 404 C 7.816 434.463, 18.590 455.412, 37.589 474.411 C 56.588 493.410, 77.537 504.184, 108 510.624 C 112.573 511.590, 399.427 511.590, 404 510.624 C 421.911 506.838, 432.791 503.007, 445.997 495.835 C 476.089 479.495, 498.980 449.919, 507.966 415.768 C 509.085 411.516, 510 406.765, 510 405.210 C 510 403.655, 510.661 401.509, 511.468 400.441 C 512.743 398.756, 512.941 379.555, 512.968 254.691 C 512.987 170.286, 512.630 111.111, 512.105 111.435 C 511.012 112.111, 510 109.691, 510 106.400 C 510 105.060, 509.085 100.484, 507.966 96.232 C 498.980 62.081, 476.089 32.505, 445.997 16.165 C 432.792 8.994, 421.807 5.127, 404 1.380 C 398.518 0.226, 112.763 -0.148, 111 0.996 M 369 40.943 C 367.075 41.417, 362.350 42.331, 358.500 42.974 C 354.650 43.617, 349.025 44.587, 346 45.130 C 332.501 47.551, 330.129 47.973, 324 49.041 C 317.942 50.097, 314.264 50.744, 301.500 53 C 288.736 55.256, 285.058 55.903, 279 56.959 C 275.425 57.582, 270.250 58.495, 267.500 58.988 C 260.987 60.155, 253.082 61.550, 245 62.959 C 241.425 63.582, 236.250 64.495, 233.500 64.988 C 226.987 66.155, 219.082 67.550, 211 68.959 C 207.425 69.582, 202.250 70.500, 199.500 71 C 196.750 71.500, 191.575 72.400, 188 73 C 180.967 74.181, 174.632 75.302, 166 76.894 C 162.975 77.452, 157.575 78.400, 154 79 C 150.425 79.600, 145.025 80.548, 142 81.106 C 133.368 82.698, 127.033 83.819, 120 85 C 116.425 85.600, 111.025 86.548, 108 87.106 C 99.368 88.698, 93.033 89.819, 86 91 C 68.208 93.988, 64.396 95.386, 56.150 101.945 C 50.838 106.170, 44.818 114.830, 42.539 121.523 C 41.606 124.261, 40.792 129.650, 40.728 133.500 C 40.621 139.995, 41.049 143.397, 44 159.500 C 44.605 162.800, 45.564 168.200, 46.130 171.500 C 48.264 183.924, 48.921 187.664, 49.995 193.500 C 50.603 196.800, 51.564 202.200, 52.130 205.500 C 54.286 218.050, 54.924 221.678, 56 227.500 C 57.076 233.322, 57.714 236.950, 59.870 249.500 C 60.436 252.800, 61.395 258.200, 62 261.500 C 62.605 264.800, 63.564 270.200, 64.130 273.500 C 66.264 285.924, 66.921 289.664, 67.995 295.500 C 68.603 298.800, 69.564 304.200, 70.130 307.500 C 70.697 310.800, 71.557 315.750, 72.041 318.500 C 72.524 321.250, 73.427 326.425, 74.046 330 C 74.665 333.575, 75.544 338.525, 76 341 C 76.881 345.785, 78.221 353.394, 80.050 364 C 80.667 367.575, 81.544 372.525, 82 375 C 82.456 377.475, 83.333 382.425, 83.950 386 C 85.779 396.606, 87.119 404.215, 88 409 C 88.456 411.475, 89.335 416.425, 89.954 420 C 93.543 440.727, 94.252 443.714, 96.626 448.086 C 103.534 460.813, 116.409 469.724, 130.728 471.686 C 134.698 472.230, 139.787 471.641, 154 468.990 C 156.475 468.529, 161.425 467.647, 165 467.030 C 168.575 466.413, 173.750 465.500, 176.500 465 C 179.250 464.500, 184.425 463.582, 188 462.959 C 196.082 461.550, 203.987 460.155, 210.500 458.988 C 213.250 458.495, 218.425 457.582, 222 456.959 C 230.082 455.550, 237.987 454.155, 244.500 452.988 C 247.250 452.495, 252.425 451.582, 256 450.959 C 262.058 449.903, 265.736 449.256, 278.500 447 C 291.264 444.744, 294.942 444.097, 301 443.041 C 304.575 442.418, 309.750 441.500, 312.500 441 C 315.250 440.500, 320.425 439.600, 324 439 C 327.575 438.400, 332.863 437.479, 335.750 436.954 C 338.637 436.429, 343.363 435.571, 346.250 435.046 C 349.137 434.521, 354.425 433.600, 358 433 C 365.033 431.819, 371.368 430.698, 380 429.106 C 383.025 428.548, 388.425 427.600, 392 427 C 395.575 426.400, 400.975 425.452, 404 424.894 C 412.632 423.302, 418.967 422.181, 426 421 C 438.819 418.847, 443.561 417.656, 447.500 415.602 C 464.658 406.652, 474.229 388.051, 471.028 369.880 C 470.409 366.371, 469.436 360.800, 468.865 357.500 C 467.666 350.581, 466.269 342.654, 464.988 335.500 C 464.495 332.750, 463.582 327.575, 462.959 324 C 461.550 315.918, 460.155 308.013, 458.988 301.500 C 458.495 298.750, 457.582 293.575, 456.959 290 C 455.550 281.918, 454.155 274.013, 452.988 267.500 C 452.495 264.750, 451.582 259.575, 450.959 256 C 449.550 247.918, 448.155 240.013, 446.988 233.500 C 446.495 230.750, 445.582 225.575, 444.959 222 C 443.550 213.918, 442.155 206.013, 440.988 199.500 C 440.495 196.750, 439.600 191.575, 439 188 C 438.400 184.425, 437.479 179.137, 436.954 176.250 C 436.429 173.363, 435.571 168.637, 435.046 165.750 C 434.521 162.863, 433.600 157.575, 433 154 C 431.819 146.967, 430.698 140.632, 429.106 132 C 428.548 128.975, 427.600 123.575, 427 120 C 425.819 112.967, 424.698 106.632, 423.106 98 C 422.548 94.975, 421.591 89.575, 420.979 86 C 417.353 64.818, 413.200 56.821, 401.500 48.492 C 398.200 46.142, 393.250 43.461, 390.500 42.534 C 384.553 40.528, 373.887 39.739, 369 40.943 M 367.902 84.431 C 367.614 84.719, 364.256 85.451, 360.439 86.058 C 352.291 87.354, 345.781 88.471, 337.500 89.995 C 334.200 90.603, 328.800 91.564, 325.500 92.130 C 313.076 94.264, 309.336 94.921, 303.500 95.995 C 300.200 96.603, 294.800 97.564, 291.500 98.130 C 279.076 100.264, 275.336 100.921, 269.500 101.995 C 266.200 102.603, 260.800 103.564, 257.500 104.130 C 245.076 106.264, 241.336 106.921, 235.500 107.995 C 232.200 108.603, 226.800 109.564, 223.500 110.130 C 220.200 110.697, 215.250 111.557, 212.500 112.041 C 209.750 112.524, 204.575 113.427, 201 114.046 C 197.425 114.665, 192.475 115.544, 190 116 C 187.525 116.456, 182.688 117.317, 179.250 117.914 C 175.813 118.511, 170.188 119.489, 166.750 120.086 C 163.313 120.683, 158.475 121.544, 156 122 C 151.215 122.881, 143.606 124.221, 133 126.050 C 129.425 126.667, 124.475 127.544, 122 128 C 115.265 129.240, 96.830 132.455, 88.500 133.841 L 84.500 134.507 84.573 139.504 C 84.613 142.252, 85.212 147.650, 85.904 151.500 C 86.596 155.350, 87.551 160.750, 88.026 163.500 C 88.502 166.250, 89.388 171.200, 89.995 174.500 C 90.603 177.800, 91.564 183.200, 92.130 186.500 C 94.264 198.924, 94.921 202.664, 95.995 208.500 C 96.603 211.800, 97.564 217.200, 98.130 220.500 C 100.286 233.050, 100.924 236.678, 102 242.500 C 103.076 248.322, 103.714 251.950, 105.870 264.500 C 106.436 267.800, 107.395 273.200, 108 276.500 C 108.605 279.800, 109.564 285.200, 110.130 288.500 C 110.697 291.800, 111.557 296.750, 112.041 299.500 C 112.524 302.250, 113.427 307.425, 114.046 311 C 114.665 314.575, 115.544 319.525, 116 322 C 116.456 324.475, 117.333 329.425, 117.950 333 C 119.779 343.606, 121.119 351.215, 122 356 C 122.456 358.475, 123.317 363.313, 123.914 366.750 C 124.511 370.188, 125.489 375.813, 126.086 379.250 C 126.683 382.688, 127.544 387.525, 128 390 C 129.240 396.735, 132.455 415.170, 133.841 423.500 L 134.507 427.500 139.504 427.427 C 142.252 427.387, 147.650 426.788, 151.500 426.096 C 155.350 425.404, 160.750 424.449, 163.500 423.974 C 166.250 423.498, 171.200 422.610, 174.500 422 C 180.322 420.924, 183.950 420.286, 196.500 418.130 C 199.800 417.564, 205.200 416.605, 208.500 416 C 211.800 415.395, 217.200 414.436, 220.500 413.870 C 232.924 411.736, 236.664 411.079, 242.500 410.005 C 245.800 409.397, 251.200 408.436, 254.500 407.870 C 266.924 405.736, 270.664 405.079, 276.500 404.005 C 279.800 403.397, 285.200 402.436, 288.500 401.870 C 291.800 401.303, 296.750 400.443, 299.500 399.959 C 302.250 399.476, 307.425 398.573, 311 397.954 C 314.575 397.335, 319.525 396.456, 322 396 C 324.475 395.544, 329.313 394.683, 332.750 394.086 C 336.188 393.489, 341.813 392.511, 345.250 391.914 C 348.688 391.317, 353.525 390.456, 356 390 C 360.785 389.119, 368.394 387.779, 379 385.950 C 382.575 385.333, 387.525 384.456, 390 384 C 392.475 383.544, 397.313 382.683, 400.750 382.086 C 404.188 381.489, 409.813 380.510, 413.250 379.912 C 416.688 379.314, 421.300 378.525, 423.500 378.159 L 427.500 377.493 427.427 372.496 C 427.387 369.748, 426.788 364.350, 426.096 360.500 C 425.404 356.650, 424.449 351.250, 423.974 348.500 C 423.498 345.750, 422.612 340.800, 422.005 337.500 C 421.397 334.200, 420.436 328.800, 419.870 325.500 C 417.714 312.950, 417.076 309.322, 416 303.500 C 414.924 297.678, 414.286 294.050, 412.130 281.500 C 411.564 278.200, 410.605 272.800, 410 269.500 C 409.395 266.200, 408.436 260.800, 407.870 257.500 C 405.714 244.950, 405.076 241.322, 404 235.500 C 403.390 232.200, 402.502 227.250, 402.026 224.500 C 401.550 221.750, 400.675 216.688, 400.080 213.250 C 397.640 199.136, 396.788 194.280, 396 190 C 395.544 187.525, 394.683 182.688, 394.086 179.250 C 393.489 175.813, 392.511 170.188, 391.914 166.750 C 391.317 163.313, 390.456 158.475, 390 156 C 389.544 153.525, 388.667 148.575, 388.050 145 C 386.221 134.394, 384.881 126.785, 384 122 C 383.544 119.525, 382.683 114.688, 382.086 111.250 C 381.489 107.813, 380.510 102.188, 379.912 98.750 C 379.314 95.313, 378.526 90.700, 378.162 88.500 C 377.513 84.577, 377.413 84.494, 372.963 84.204 C 370.467 84.041, 368.190 84.143, 367.902 84.431 M 0.487 256 C 0.487 335.475, 0.605 367.988, 0.750 328.250 C 0.895 288.513, 0.895 223.488, 0.750 183.750 C 0.605 144.013, 0.487 176.525, 0.487 256 M 301 118.026 C 298.525 118.463, 294.025 119.274, 291 119.829 C 287.975 120.384, 282.427 121.328, 278.671 121.926 C 267.967 123.631, 267.621 123.966, 268.394 131.854 C 268.752 135.509, 269.446 145.025, 269.937 153 C 270.428 160.975, 271.152 172.037, 271.546 177.583 L 272.263 187.666 267.881 188.757 C 265.472 189.356, 260.125 190.366, 256 191 C 251.875 191.634, 246.700 192.564, 244.500 193.066 C 242.300 193.568, 238.252 194.096, 235.504 194.240 L 230.508 194.500 229.772 186.500 C 229.368 182.100, 228.563 170.850, 227.984 161.500 C 227.405 152.150, 226.664 141.636, 226.337 138.135 L 225.743 131.770 221.121 132.366 C 218.580 132.693, 214.025 133.402, 211 133.941 C 207.975 134.480, 202.800 135.389, 199.500 135.963 C 187.306 138.081, 185.696 138.535, 184.684 140.139 C 183.969 141.273, 184.003 145.282, 184.793 153.139 C 187.106 176.115, 188.260 200.982, 187.079 202.405 C 186.465 203.144, 183.834 204.025, 181.232 204.362 C 178.629 204.699, 174.250 205.392, 171.500 205.902 C 163.540 207.378, 154.493 208.924, 147.856 209.944 C 144.476 210.464, 141.283 211.317, 140.760 211.840 C 140.159 212.441, 140.234 214.944, 140.963 218.645 C 141.597 221.865, 142.511 226.750, 142.993 229.500 C 143.475 232.250, 144.349 236.897, 144.935 239.826 C 145.521 242.756, 146 246.413, 146 247.954 C 146 252.457, 147.759 253.185, 155.620 251.934 C 162.227 250.882, 164.539 250.486, 179 247.931 C 182.575 247.300, 186.850 246.719, 188.500 246.641 L 191.500 246.500 192.141 256 C 192.493 261.225, 193.117 270.498, 193.526 276.608 C 194.069 284.713, 193.953 287.911, 193.099 288.439 C 192.456 288.836, 189.132 289.614, 185.714 290.167 C 182.297 290.719, 177.475 291.532, 175 291.972 C 172.525 292.413, 168.250 293.087, 165.500 293.469 C 162.750 293.852, 159.253 294.637, 157.729 295.213 C 154.686 296.363, 154.727 295.469, 157.084 309.500 C 160.743 331.280, 162.341 337.586, 164.094 337.152 C 164.867 336.961, 168.200 336.360, 171.500 335.817 C 174.800 335.273, 179.750 334.428, 182.500 333.939 C 185.250 333.449, 189.797 332.756, 192.604 332.399 L 197.707 331.750 198.878 351.125 C 200.308 374.786, 202.055 393.236, 202.965 394.271 C 203.582 394.973, 210.021 394.205, 222 392 C 224.475 391.544, 229.573 390.680, 233.329 390.079 C 244.035 388.365, 244.379 388.033, 243.606 380.146 C 243.248 376.491, 242.554 366.975, 242.063 359 C 241.572 351.025, 240.848 339.963, 240.454 334.417 L 239.737 324.334 244.119 323.243 C 246.528 322.644, 251.875 321.634, 256 321 C 260.125 320.366, 265.300 319.436, 267.500 318.934 C 269.700 318.432, 273.748 317.904, 276.496 317.760 L 281.492 317.500 282.228 325.500 C 282.632 329.900, 283.437 341.150, 284.016 350.500 C 284.595 359.850, 285.336 370.364, 285.663 373.865 L 286.257 380.230 290.879 379.634 C 293.420 379.307, 297.975 378.598, 301 378.059 C 304.025 377.520, 309.200 376.611, 312.500 376.037 C 324.694 373.919, 326.304 373.465, 327.316 371.861 C 328.031 370.727, 327.997 366.718, 327.207 358.861 C 324.894 335.885, 323.740 311.018, 324.921 309.595 C 325.535 308.856, 328.166 307.975, 330.768 307.638 C 333.371 307.301, 337.750 306.608, 340.500 306.098 C 348.460 304.622, 357.507 303.076, 364.144 302.056 C 367.524 301.536, 370.717 300.683, 371.240 300.160 C 371.841 299.559, 371.766 297.056, 371.037 293.355 C 370.403 290.135, 369.489 285.250, 369.007 282.500 C 368.525 279.750, 367.651 275.103, 367.065 272.174 C 366.479 269.244, 366 265.587, 366 264.046 C 366 259.543, 364.241 258.815, 356.380 260.066 C 349.773 261.118, 347.461 261.514, 333 264.069 C 329.425 264.700, 325.150 265.281, 323.500 265.359 L 320.500 265.500 319.875 256.500 C 317.791 226.480, 317.726 224.288, 318.894 223.565 C 319.541 223.165, 322.868 222.386, 326.286 221.833 C 329.703 221.281, 334.525 220.468, 337 220.028 C 339.475 219.587, 343.750 218.913, 346.500 218.531 C 349.250 218.148, 352.747 217.363, 354.271 216.787 C 357.314 215.637, 357.273 216.531, 354.916 202.500 C 351.257 180.720, 349.659 174.414, 347.906 174.848 C 347.133 175.039, 343.800 175.640, 340.500 176.183 C 337.200 176.727, 332.250 177.572, 329.500 178.061 C 326.750 178.551, 322.203 179.244, 319.396 179.601 L 314.293 180.250 313.124 160.875 C 312.481 150.219, 311.401 136.100, 310.724 129.500 C 309.344 116.046, 309.719 116.489, 301 118.026 M 262 233.052 C 258.509 233.893, 253.642 234.833, 240.621 237.179 L 233.743 238.418 234.462 250.459 C 234.857 257.082, 235.477 266.325, 235.840 271 L 236.500 279.500 240 279.841 C 241.925 280.028, 245.750 279.717, 248.500 279.151 C 254.044 278.008, 261.010 276.690, 271.387 274.820 L 278.275 273.578 277.522 261.539 C 277.108 254.918, 276.484 245.675, 276.135 241 L 275.500 232.500 270.500 232.354 C 267.750 232.274, 263.925 232.588, 262 233.052" stroke="none" fill="black" fill-rule="evenodd"/>
</svg>